<?xml version="1.0" standalone="no"?>
<!DOCTYPE svg PUBLIC "-//W3C//DTD SVG 20010904//EN"
 "http://www.w3.org/TR/2001/REC-SVG-20010904/DTD/svg10.dtd">
<svg version="1.0" xmlns="http://www.w3.org/2000/svg"
 width="236.000000pt" height="236.000000pt" viewBox="0 0 236.000000 236.000000"
 preserveAspectRatio="xMidYMid meet">
<metadata>
Created by potrace 1.14, written by Peter Selinger 2001-2017
</metadata>
<g transform="translate(0.000000,236.000000) scale(0.100000,-0.100000)"
fill="#000000" stroke="none">
<path d="M1080 2355 c0 -3 11 -23 25 -45 15 -24 22 -46 18 -56 -4 -11 -3 -15
5 -11 6 4 13 -1 15 -10 3 -10 5 0 6 22 1 45 -30 105 -54 105 -8 0 -15 -2 -15
-5z"/>
<path d="M1154 2341 c23 -26 56 -133 49 -160 -3 -12 -1 -21 6 -21 7 0 11 19
11 48 0 58 -41 152 -66 152 -16 0 -16 -1 0 -19z"/>
<path d="M795 2250 c21 -24 26 -25 19 -6 -3 8 -13 17 -22 21 -13 5 -13 2 3
-15z"/>
<path d="M1247 2187 c-11 -29 -9 -53 4 -40 6 6 9 21 7 34 -3 21 -4 22 -11 6z"/>
<path d="M1278 2141 c-6 -10 -18 -17 -25 -14 -7 3 -13 1 -13 -3 1 -5 29 -25
63 -45 73 -42 144 -125 169 -196 24 -69 31 -134 18 -163 -10 -25 -10 -25 -6 4
13 96 -122 184 -170 110 -9 -14 -23 -23 -30 -20 -10 4 -14 -4 -15 -27 0 -31
-17 -84 -18 -60 -1 17 -46 60 -70 68 -11 3 -36 -1 -55 -10 -49 -24 -79 -86
-73 -155 l5 -52 -27 25 c-27 27 -80 51 -89 42 -3 -3 -1 -5 5 -5 13 0 75 -62
68 -68 -5 -6 -65 21 -65 30 0 12 -85 34 -120 31 -62 -5 -124 -34 -174 -82 -77
-73 -90 -125 -50 -203 20 -38 99 -61 172 -49 29 4 63 6 75 4 26 -4 49 10 153
97 73 60 82 65 139 70 40 4 68 2 85 -7 41 -21 96 -17 114 9 20 29 20 47 -1 70
-16 17 -16 20 1 36 16 16 18 16 31 -2 17 -23 29 -80 22 -100 -3 -8 -34 -35
-68 -60 -64 -47 -148 -74 -193 -62 -12 3 -35 1 -51 -3 -25 -8 -18 -9 37 -10
92 -1 161 15 189 45 12 13 28 24 35 24 7 0 24 14 38 31 26 31 34 81 17 108 -6
10 1 24 25 48 19 18 34 40 34 48 0 8 9 15 20 15 15 0 22 9 27 30 4 24 9 28 19
20 9 -9 16 -6 25 11 l12 23 9 -24 9 -24 15 22 c17 24 39 30 31 8 -10 -26 5
-25 44 3 88 64 139 65 160 4 15 -45 6 -160 -15 -202 -10 -19 -12 -32 -6 -36 6
-4 20 15 31 40 17 39 20 63 17 130 -3 72 -6 87 -28 110 -21 23 -31 26 -65 22
-23 -2 -60 -16 -84 -31 -33 -21 -46 -25 -51 -16 -5 7 -17 10 -29 7 -12 -3 -21
-1 -21 4 0 14 -22 11 -40 -6 -16 -14 -18 -12 -23 36 -13 107 -97 237 -195 300
-38 24 -41 28 -27 42 17 18 19 27 5 27 -5 0 -15 -9 -22 -19z m53 -654 c-8 -8
-11 -7 -11 4 0 9 3 19 7 23 4 4 9 2 11 -4 3 -7 -1 -17 -7 -23z"/>
<path d="M354 1727 c-12 -6 -36 -25 -54 -40 -30 -25 -31 -30 -18 -43 9 -9 34
-17 56 -20 22 -2 46 -5 52 -6 7 -2 15 3 17 10 3 8 -2 10 -14 6 -14 -5 -15 -4
-4 4 8 6 30 9 50 7 20 -1 30 -1 24 2 -16 6 -17 33 -1 33 14 0 1 14 -15 16 -7
0 -20 2 -29 2 -10 1 -18 6 -18 11 0 4 12 6 26 3 20 -4 25 -1 22 9 -6 18 -67
22 -94 6z"/>
<path d="M110 1673 c0 -18 32 -54 62 -69 61 -31 158 -62 164 -52 8 13 8 13
-71 37 -46 13 -86 33 -113 57 -23 19 -42 32 -42 27z"/>
<path d="M1753 1657 c-6 -12 -23 -44 -37 -72 -29 -57 -33 -80 -11 -72 8 4 17
2 20 -3 10 -16 38 -12 31 5 -3 8 1 29 8 47 14 34 20 118 8 118 -4 0 -12 -10
-19 -23z"/>
<path d="M420 1629 c0 -5 5 -7 10 -4 6 3 10 8 10 11 0 2 -4 4 -10 4 -5 0 -10
-5 -10 -11z"/>
<path d="M1875 1620 c-8 -13 4 -32 16 -25 12 8 12 35 0 35 -6 0 -13 -4 -16
-10z"/>
<path d="M1915 1589 c-4 -6 -5 -13 -2 -16 7 -7 27 6 27 18 0 12 -17 12 -25 -2z"/>
<path d="M1950 1550 c0 -5 9 -10 19 -10 25 0 51 -37 51 -72 0 -61 -55 -173
-113 -231 -10 -10 -16 -22 -12 -25 4 -4 24 12 46 36 43 45 86 61 81 29 -2 -12
2 -17 14 -15 12 2 21 -8 29 -32 11 -32 12 -33 23 -15 10 18 11 18 12 3 0 -10
5 -18 10 -18 10 0 14 21 11 48 -1 7 4 11 11 10 9 -2 14 12 16 45 3 43 0 51
-31 82 -19 19 -44 35 -55 35 -16 0 -20 9 -24 50 -3 28 -13 59 -23 70 -19 21
-65 28 -65 10z"/>
<path d="M240 1541 c0 -5 11 -12 25 -15 14 -4 25 -11 25 -16 0 -6 6 -10 14
-10 11 0 12 5 3 25 -9 18 -20 25 -39 25 -16 0 -28 -4 -28 -9z"/>
<path d="M250 1498 c0 -19 2 -20 10 -8 13 19 13 30 0 30 -5 0 -10 -10 -10 -22z"/>
<path d="M1770 1455 c7 -9 15 -13 17 -11 7 7 -7 26 -19 26 -6 0 -6 -6 2 -15z"/>
<path d="M254 1406 c11 -45 42 -83 92 -112 24 -14 42 -30 39 -35 -3 -4 -12 -6
-20 -3 -10 4 -12 0 -8 -16 3 -12 1 -25 -6 -29 -6 -4 -14 -25 -17 -47 -10 -71
-14 -84 -31 -84 -9 0 -21 -8 -28 -17 -11 -15 -14 -13 -30 18 -22 43 -74 99
-93 99 -8 0 -2 -11 15 -27 22 -21 31 -41 37 -79 3 -28 3 -60 0 -70 -13 -35
-43 -72 -64 -77 -19 -5 -21 -2 -14 26 14 66 8 104 -18 113 -13 4 -37 17 -54
30 -17 13 -36 24 -42 24 -21 0 -13 -20 14 -32 21 -10 24 -16 17 -37 -11 -37
-8 -108 6 -125 9 -11 6 -18 -19 -36 -30 -21 -41 -50 -18 -50 6 0 25 11 42 24
17 12 46 25 64 28 17 2 32 4 32 3 0 -1 -16 -33 -35 -72 -19 -39 -35 -82 -35
-95 0 -34 -15 -51 -37 -44 -16 5 -19 15 -19 53 1 28 -4 48 -11 50 -10 4 -13
-14 -13 -65 0 -49 4 -70 12 -69 53 2 53 2 71 -108 16 -94 17 -107 3 -134 -22
-42 -36 -47 -36 -13 0 28 -34 72 -42 55 -2 -4 -5 -41 -6 -82 -3 -73 -2 -74 16
-58 10 9 24 17 31 17 7 0 25 13 41 30 l27 29 10 -22 c6 -12 15 -41 20 -65 10
-41 9 -43 -17 -57 -43 -22 -89 -64 -106 -96 -15 -30 -15 -30 12 -23 30 8 28
-2 -9 -43 -31 -35 -11 -40 24 -7 32 29 32 29 15 2 -11 -16 -13 -28 -7 -32 5
-4 15 3 21 14 6 11 15 20 21 20 6 0 6 -7 -1 -19 -16 -30 5 -34 25 -5 16 25 39
28 41 6 3 -27 7 -25 13 8 4 19 12 34 18 33 7 -2 33 6 59 17 41 18 51 19 97 7
61 -15 77 -16 77 -2 1 13 -119 37 -155 30 -23 -4 -37 1 -59 20 -16 14 -33 25
-37 25 -4 0 -5 10 -2 22 3 13 4 31 4 41 -1 9 -3 34 -4 56 -1 22 -6 37 -12 34
-6 -2 -11 5 -12 16 -1 14 3 18 13 14 8 -3 25 2 39 11 21 14 25 24 25 69 0 72
9 97 32 97 11 0 16 5 13 11 -4 6 2 13 13 16 18 4 20 12 16 69 -3 65 10 87 22
37 8 -34 61 -117 99 -158 40 -42 45 -14 6 31 -35 40 -39 54 -12 47 38 -10 68
70 36 97 -20 16 -19 30 1 30 12 0 14 7 10 28 -4 17 -1 35 8 47 9 11 16 27 16
36 0 9 14 30 30 48 27 28 20 47 -7 20 -16 -16 -46 -3 -66 30 -14 24 -15 34 -6
54 9 19 7 31 -6 58 l-17 34 30 -28 c22 -21 31 -25 36 -15 3 7 5 0 3 -17 -2
-25 1 -30 20 -30 14 0 19 3 13 9 -6 6 -10 19 -10 30 1 16 5 12 15 -13 8 -18
12 -37 9 -42 -3 -5 3 -6 13 -3 10 3 24 8 32 10 11 4 9 9 -7 24 -12 11 -26 20
-32 20 -5 0 -10 13 -10 29 0 16 -8 39 -19 52 -16 19 -21 21 -34 11 -13 -11
-18 -9 -31 9 -15 22 -14 30 7 57 8 10 14 9 28 -4 11 -10 22 -15 25 -12 9 9
-26 69 -36 63 -22 -14 -164 92 -191 143 -24 46 -33 53 -25 18z m-154 -399 c0
-35 -11 -67 -21 -61 -10 6 -12 77 -3 87 11 11 24 -3 24 -26z m307 -262 c-2
-64 -10 -83 -20 -46 -5 19 10 111 18 111 2 0 3 -29 2 -65z m49 -70 c0 -14 -4
-25 -8 -25 -4 0 -8 11 -8 25 0 14 4 25 8 25 4 0 8 -11 8 -25z"/>
<path d="M1503 1324 c-24 -14 -43 -29 -43 -35 0 -5 -4 -9 -10 -9 -5 0 -7 8 -3
18 3 9 -8 -2 -26 -25 -17 -24 -31 -47 -31 -53 0 -13 -20 -13 -21 0 -1 6 -3 15
-4 20 -1 6 -3 16 -4 24 0 8 -9 24 -19 36 -22 27 -68 19 -78 -13 -4 -12 -15
-32 -24 -44 l-18 -23 -16 23 c-16 22 -16 22 -6 0 5 -12 10 -30 10 -39 0 -15
-3 -15 -24 5 -30 28 -75 30 -112 5 -16 -11 -41 -25 -56 -32 -51 -22 -15 -79
68 -108 32 -11 42 -10 68 3 17 8 38 22 48 30 11 10 18 11 23 3 10 -17 79 -42
83 -30 2 5 9 10 16 10 7 0 20 15 28 34 18 36 61 51 94 33 12 -7 15 -6 10 2 -4
6 -1 11 8 11 9 0 16 4 16 10 0 5 19 31 43 58 65 75 77 91 77 102 0 19 -55 10
-97 -16z m-169 -199 c-4 -8 -10 -15 -15 -15 -4 0 -6 7 -3 15 4 8 10 15 15 15
4 0 6 -7 3 -15z"/>
<path d="M929 1237 c-18 -12 -39 -34 -46 -47 -16 -32 -16 -128 0 -157 10 -18
12 -9 12 63 0 84 1 86 33 115 18 16 39 29 48 29 8 0 12 5 9 10 -9 15 -18 13
-56 -13z"/>
<path d="M2164 1220 c-17 -6 -38 -17 -45 -27 -12 -15 -12 -16 6 -11 11 4 34
12 52 19 41 17 100 0 149 -43 28 -25 35 -28 33 -14 -6 27 -79 75 -124 80 -22
3 -54 1 -71 -4z"/>
<path d="M0 1212 c0 -4 16 -16 35 -26 20 -11 54 -39 76 -63 22 -24 45 -41 50
-37 14 8 -43 69 -100 105 -46 30 -61 35 -61 21z"/>
<path d="M1720 1170 c-9 -21 -18 -29 -29 -26 -11 4 -26 -10 -50 -46 -22 -34
-36 -47 -41 -39 -5 10 -9 9 -13 -3 -4 -9 -13 -13 -21 -10 -8 3 -19 -3 -25 -15
-17 -31 -13 -36 11 -15 19 17 21 17 15 2 -8 -22 -3 -23 17 -2 15 14 16 12 16
-18 0 -39 15 -58 46 -58 13 0 26 -4 29 -10 3 -5 2 -10 -2 -10 -5 0 -19 -20
-31 -45 -29 -61 -5 -61 28 0 20 36 37 51 89 77 56 29 70 41 103 97 40 66 43
88 8 56 -23 -21 -25 -11 -5 25 8 14 14 34 15 44 0 18 -1 18 -19 2 -18 -16 -20
-16 -40 5 -16 18 -23 20 -35 10 -11 -9 -20 -9 -34 -2 -17 9 -22 6 -32 -19z"/>
<path d="M2175 1151 c-11 -5 -30 -7 -42 -4 -29 7 -29 -4 -1 -27 19 -15 21 -21
11 -41 -19 -39 -23 -157 -6 -174 20 -21 66 -19 112 6 31 16 44 18 60 10 45
-25 51 -17 51 74 0 72 -3 88 -20 105 -12 12 -26 18 -33 14 -7 -4 -9 -4 -5 1
21 23 -87 53 -127 36z"/>
<path d="M2042 1130 c0 -8 4 -26 8 -40 6 -20 8 -21 8 -5 0 11 -3 29 -8 40 -5
12 -8 14 -8 5z"/>
<path d="M2001 1100 c0 -8 4 -24 9 -35 5 -13 9 -14 9 -5 0 8 -4 24 -9 35 -5
13 -9 14 -9 5z"/>
<path d="M1315 1050 c-3 -6 1 -7 9 -4 18 7 21 14 7 14 -6 0 -13 -4 -16 -10z"/>
<path d="M1371 994 c-39 -19 -71 -42 -71 -50 0 -17 16 -19 26 -3 3 6 40 27 80
46 41 19 74 36 74 39 0 13 -46 0 -109 -32z"/>
<path d="M590 980 c0 -5 5 -10 11 -10 5 0 7 5 4 10 -3 6 -8 10 -11 10 -2 0 -4
-4 -4 -10z"/>
<path d="M1020 969 c36 -16 187 -59 207 -59 56 0 -100 54 -187 65 -39 5 -41 4
-20 -6z"/>
<path d="M1505 849 c-22 -5 -51 -21 -66 -35 -26 -25 -26 -25 -32 -4 -4 17 -10
20 -34 14 -67 -16 -127 -116 -104 -173 15 -35 77 -65 120 -59 20 3 31 0 31 -8
0 -6 7 -15 16 -18 23 -9 24 -8 22 12 -3 39 3 62 15 62 36 0 63 70 33 87 -8 4
-16 21 -18 38 -3 26 1 31 29 40 18 6 39 18 45 27 7 9 20 18 28 21 25 9 -42 6
-85 -4z"/>
<path d="M1710 791 c0 -12 39 -25 48 -16 7 7 -17 25 -35 25 -7 0 -13 -4 -13
-9z"/>
<path d="M690 776 c0 -19 49 -76 50 -58 0 19 -29 72 -40 72 -6 0 -10 -6 -10
-14z"/>
<path d="M2302 759 c6 -16 12 -28 14 -26 5 5 -13 57 -20 57 -3 0 0 -14 6 -31z"/>
<path d="M751 733 c21 -57 61 -113 97 -138 42 -28 75 -33 66 -10 -4 8 -12 15
-20 15 -23 0 -73 52 -102 104 -31 57 -59 77 -41 29z"/>
<path d="M1742 690 c0 -14 2 -19 5 -12 2 6 2 18 0 25 -3 6 -5 1 -5 -13z"/>
<path d="M331 624 c0 -11 3 -14 6 -6 3 7 2 16 -1 19 -3 4 -6 -2 -5 -13z"/>
<path d="M2005 611 c-7 -12 12 -24 25 -16 11 7 4 25 -10 25 -5 0 -11 -4 -15
-9z"/>
<path d="M1890 598 c-40 -11 -72 -36 -64 -50 3 -5 13 -3 22 6 10 8 31 17 47
21 57 13 65 16 60 26 -7 11 -19 10 -65 -3z"/>
<path d="M2050 602 c0 -4 15 -8 34 -8 19 0 32 4 30 8 -3 4 -18 8 -35 8 -16 0
-29 -4 -29 -8z"/>
<path d="M2137 596 c-4 -9 2 -17 14 -21 27 -9 35 0 19 20 -16 19 -26 19 -33 1z"/>
<path d="M301 571 c-7 -5 -12 -14 -10 -20 2 -6 10 -2 17 9 14 22 13 23 -7 11z"/>
<path d="M1320 520 c0 -5 -13 -7 -30 -3 -18 3 -30 1 -30 -5 0 -6 8 -10 18 -10
9 0 26 -3 36 -7 14 -6 17 -5 12 3 -4 8 2 16 16 21 l23 10 -22 0 c-13 1 -23 -3
-23 -9z"/>
<path d="M1517 517 c17 -28 153 -52 153 -27 0 6 -13 10 -28 10 -15 0 -51 6
-79 13 -29 8 -50 10 -46 4z"/>
<path d="M280 505 c7 -9 15 -13 17 -11 7 7 -7 26 -19 26 -6 0 -6 -6 2 -15z"/>
<path d="M1722 511 c2 -7 7 -12 11 -12 12 1 9 15 -3 20 -7 2 -11 -2 -8 -8z"/>
<path d="M1696 502 c-3 -6 -1 -14 5 -17 15 -10 25 3 12 16 -7 7 -13 7 -17 1z"/>
<path d="M2242 498 c3 -7 13 -15 24 -17 24 -4 42 -19 56 -45 10 -18 9 -19 -3
-9 -9 7 -20 8 -28 3 -12 -7 -11 -11 2 -25 18 -17 21 -44 11 -82 -5 -19 -13
-23 -49 -23 -51 0 -95 -30 -95 -65 0 -52 82 -56 120 -7 18 22 23 24 31 12 27
-40 39 -72 39 -100 0 -28 -2 -30 -37 -30 -76 -1 -91 -38 -45 -110 2 -2 6 0 10
5 11 15 62 36 73 30 5 -4 9 32 9 87 0 76 -4 99 -20 126 -18 29 -19 38 -9 75 6
23 16 52 22 65 14 30 -12 81 -53 105 -33 20 -63 22 -58 5z m28 -235 c0 -11
-33 -35 -59 -43 -28 -8 -29 -7 -22 13 9 25 47 48 67 40 8 -3 14 -7 14 -10z
m60 -183 c0 -10 -32 -30 -49 -30 -18 0 -12 28 7 33 30 8 42 7 42 -3z"/>
<path d="M450 464 c0 -15 26 -19 34 -5 3 5 -3 11 -14 14 -13 3 -20 0 -20 -9z"/>
<path d="M2130 473 c0 -6 18 -13 39 -17 22 -3 54 -18 71 -33 27 -22 32 -23 29
-8 -2 10 -16 27 -30 37 -29 22 -109 37 -109 21z"/>
<path d="M240 421 c0 -11 4 -22 9 -25 4 -3 6 6 3 19 -5 30 -12 33 -12 6z"/>
<path d="M485 430 c3 -5 10 -10 16 -10 5 0 9 5 9 10 0 6 -7 10 -16 10 -8 0
-12 -4 -9 -10z"/>
<path d="M1558 379 c-25 -35 -57 -83 -71 -106 -21 -33 -31 -40 -47 -36 -16 4
-30 -3 -50 -26 -28 -30 -31 -31 -113 -31 -55 0 -98 -6 -123 -16 -25 -10 -55
-14 -86 -12 -40 4 -46 3 -37 -8 15 -18 74 -18 130 0 24 8 85 16 135 18 91 3
92 3 108 -26 l16 -28 78 7 c42 3 97 8 122 10 25 2 98 4 163 4 82 1 117 4 117
13 0 8 -47 10 -182 5 -206 -7 -212 -5 -220 58 -5 36 1 49 54 128 69 103 74
141 6 46z m-137 -186 c-8 -15 -10 -15 -11 -2 0 17 10 32 18 25 2 -3 -1 -13 -7
-23z"/>
<path d="M2026 407 c-22 -7 -41 -18 -44 -26 -3 -10 1 -11 19 -5 13 5 57 9 97
9 39 0 72 3 72 6 0 6 -81 30 -97 28 -4 0 -26 -6 -47 -12z"/>
<path d="M205 350 c-3 -5 -1 -10 4 -10 6 0 11 5 11 10 0 6 -2 10 -4 10 -3 0
-8 -4 -11 -10z"/>
<path d="M2020 343 c-50 -17 -100 -47 -100 -59 0 -19 10 -17 40 6 14 11 51 25
83 31 31 6 57 16 57 20 0 10 -55 11 -80 2z"/>
<path d="M1955 229 c-19 -17 -35 -40 -35 -50 0 -27 15 -24 28 6 7 14 28 35 47
46 40 24 43 29 15 29 -10 0 -35 -14 -55 -31z"/>
<path d="M0 214 c0 -8 5 -12 10 -9 6 3 10 10 10 16 0 5 -4 9 -10 9 -5 0 -10
-7 -10 -16z"/>
<path d="M1997 158 c-31 -42 -50 -99 -38 -111 6 -6 14 6 21 32 6 23 25 57 41
76 22 25 27 35 16 35 -9 0 -27 -15 -40 -32z"/>
<path d="M962 169 c2 -7 10 -15 17 -17 8 -3 12 1 9 9 -2 7 -10 15 -17 17 -8 3
-12 -1 -9 -9z"/>
<path d="M893 151 c-17 -28 -170 -39 -232 -17 -43 16 -64 14 -45 -3 23 -20
107 -33 172 -27 90 9 112 16 112 32 0 10 7 13 25 8 15 -4 25 -2 25 5 0 6 -4
11 -9 11 -5 0 -15 2 -23 5 -7 3 -18 -3 -25 -14z"/>
<path d="M472 138 c3 -7 13 -15 24 -17 16 -3 17 -1 5 13 -16 19 -34 21 -29 4z"/>
<path d="M552 139 c2 -7 10 -15 17 -17 8 -3 12 1 9 9 -2 7 -10 15 -17 17 -8 3
-12 -1 -9 -9z"/>
<path d="M2057 98 c-19 -28 -33 -98 -20 -98 10 0 46 110 39 117 -2 3 -11 -6
-19 -19z"/>
<path d="M299 82 c7 -12 9 -27 6 -32 -3 -6 -2 -10 3 -10 5 0 14 11 20 25 15
34 15 40 -1 26 -10 -8 -17 -7 -26 2 -11 10 -11 8 -2 -11z"/>
<path d="M462 73 c2 -18 9 -28 21 -29 12 -1 13 -1 2 3 -21 6 -19 40 3 46 12 3
11 5 -6 6 -20 1 -23 -3 -20 -26z"/>
<path d="M588 92 c-14 -3 -16 -8 -8 -21 5 -10 6 -21 3 -25 -3 -3 -2 -6 4 -6 6
0 13 12 16 28 6 31 7 29 -15 24z"/>
<path d="M365 80 c18 -7 19 -8 3 -15 -18 -7 -15 -25 3 -25 6 0 8 4 4 9 -3 5
-1 12 5 16 14 9 2 25 -18 24 -14 0 -13 -2 3 -9z"/>
<path d="M400 70 c0 -25 20 -27 21 -2 0 15 1 15 8 -2 6 -17 8 -17 14 -4 7 20
0 28 -25 28 -11 0 -18 -7 -18 -20z"/>
<path d="M515 80 c-9 -15 14 -40 36 -40 16 0 17 3 7 25 -12 26 -32 33 -43 15z
m25 -10 c0 -5 -4 -10 -10 -10 -5 0 -10 5 -10 10 0 6 5 10 10 10 6 0 10 -4 10
-10z"/>
<path d="M626 64 c-20 -20 -21 -19 9 -20 19 -2 23 1 15 10 -5 7 -7 16 -3 19 3
4 4 7 0 7 -3 0 -13 -7 -21 -16z"/>
<path d="M2146 15 c-3 -9 0 -15 9 -15 8 0 15 7 15 15 0 8 -4 15 -9 15 -5 0
-11 -7 -15 -15z"/>
<path d="M2338 3 c7 -3 16 -2 19 1 4 3 -2 6 -13 5 -11 0 -14 -3 -6 -6z"/>
</g>
</svg>
